<svg xmlns="http://www.w3.org/2000/svg" version="1.1" xmlns:xlink="http://www.w3.org/1999/xlink" xmlns:svgjs="http://svgjs.dev/svgjs" width="1000" height="446" viewBox="0 0 1000 446"><g transform="matrix(1,0,0,1,-0.6060606060606233,0.6185619173586758)"><svg viewBox="0 0 396 177" data-background-color="#ffffff" preserveAspectRatio="xMidYMid meet" height="446" width="1000" xmlns="http://www.w3.org/2000/svg" xmlns:xlink="http://www.w3.org/1999/xlink"><g id="tight-bounds" transform="matrix(1,0,0,1,0.2400000000000091,-0.24548309276342195)"><svg viewBox="0 0 395.52 177.49096618552684" height="177.49096618552684" width="395.52"><g><svg viewBox="0 0 395.52000000000004 177.49096618552687" height="177.49096618552684" width="395.52"><g transform="matrix(1,0,0,1,0,130.7674497020104)"><svg viewBox="0 0 395.52000000000004 46.72351648351649" height="46.72351648351649" width="395.52000000000004"><g id="textblocktransform"><svg viewBox="0 0 395.52000000000004 46.72351648351649" height="46.72351648351649" width="395.52000000000004" id="textblock"><g><svg viewBox="0 0 395.52000000000004 46.72351648351649" height="46.72351648351649" width="395.52000000000004"><g transform="matrix(1,0,0,1,0,0)"><svg width="395.52000000000004" viewBox="3 -35.54999923706055 363.9700012207031 43" height="46.72351648351649" data-palette-color="#a437db"><path d="M37.15 7.45L35.4 7.45 25.3-0.45Q22.65 0.4 19.8 0.4L19.8 0.4Q14.95 0.4 11.13-1.88 7.3-4.15 5.15-8.25 3-12.35 3-17.55L3-17.55Q3-22.75 5.15-26.85 7.3-30.95 11.13-33.23 14.95-35.5 19.8-35.5L19.8-35.5Q24.65-35.5 28.48-33.23 32.3-30.95 34.45-26.85 36.6-22.75 36.6-17.55L36.6-17.55Q36.6-11.65 33.88-7.25 31.15-2.85 26.5-0.9L26.5-0.9 37.15 7.45ZM4.05-17.55Q4.05-12.4 6.13-8.53 8.2-4.65 11.8-2.58 15.4-0.5 19.8-0.5L19.8-0.5Q24.2-0.5 27.8-2.58 31.4-4.65 33.48-8.53 35.55-12.4 35.55-17.55L35.55-17.55Q35.55-22.7 33.48-26.58 31.4-30.45 27.8-32.52 24.2-34.6 19.8-34.6L19.8-34.6Q15.4-34.6 11.8-32.52 8.2-30.45 6.13-26.58 4.05-22.7 4.05-17.55L4.05-17.55ZM81.95-35.2L83.05-35.2 73.6 0 72.6 0 62.15-33.55 51.7 0 50.8 0 41.35-35.2 42.45-35.2 51.3-1.95 61.6-35.2 62.7-35.2 73.1-1.8 81.95-35.2ZM89.05-35.2L90.05-35.2 90.05 0 89.05 0 89.05-35.2ZM117.99-35.2L100.14-17.6 117.99 0 116.64 0 99.54-16.8 99.54 0 98.54 0 98.54-35.2 99.54-35.2 99.54-18.3 116.64-35.2 117.99-35.2ZM142.49-35.2L132.04-17.6 142.49 0 141.34 0 131.34-16.9 121.64 0 120.49 0 130.79-17.85 120.49-35.2 121.64-35.2 131.49-18.55 141.34-35.2 142.49-35.2ZM193.09-34.2L194.09-34.2 194.09 0 193.09 0 193.09-31.75 178.94 0 177.94 0 163.74-31.75 163.74 0 162.74 0 162.74-34.2 163.74-34.2 178.44-1.3 193.09-34.2ZM219.78-34.3L203.58-34.3 203.58-18.05 218.28-18.05 218.28-17.15 203.58-17.15 203.58-0.9 219.78-0.9 219.78 0 202.58 0 202.58-35.2 219.78-35.2 219.78-34.3ZM236.18 0.35Q232.83 0.35 230.36-0.85 227.88-2.05 226.53-4.03 225.18-6 224.93-8.3L224.93-8.3 225.93-8.3Q226.18-6.55 227.21-4.8 228.23-3.05 230.46-1.8 232.68-0.55 236.18-0.55L236.18-0.55Q238.98-0.55 241.13-1.63 243.28-2.7 244.43-4.5 245.58-6.3 245.58-8.5L245.58-8.5Q245.58-11.35 244.28-13.03 242.98-14.7 241.06-15.5 239.13-16.3 235.88-17.15L235.88-17.15Q232.48-18.05 230.43-18.95 228.38-19.85 226.96-21.73 225.53-23.6 225.53-26.8L225.53-26.8Q225.53-29.1 226.81-31.13 228.08-33.15 230.46-34.35 232.83-35.55 235.88-35.55L235.88-35.55Q238.98-35.55 241.23-34.45 243.48-33.35 244.76-31.68 246.03-30 246.43-28.15L246.43-28.15 245.43-28.15Q245.08-29.6 243.98-31.1 242.88-32.6 240.83-33.63 238.78-34.65 235.88-34.65L235.88-34.65Q233.33-34.65 231.21-33.68 229.08-32.7 227.81-30.93 226.53-29.15 226.53-26.8L226.53-26.8Q226.53-23.9 227.86-22.18 229.18-20.45 231.13-19.63 233.08-18.8 236.33-17.95L236.33-17.95Q239.73-17.05 241.76-16.18 243.78-15.3 245.18-13.48 246.58-11.65 246.58-8.5L246.58-8.5Q246.58-6.3 245.41-4.25 244.23-2.2 241.88-0.93 239.53 0.35 236.18 0.35L236.18 0.35ZM262.98 0.35Q259.63 0.35 257.15-0.85 254.68-2.05 253.33-4.03 251.98-6 251.73-8.3L251.73-8.3 252.73-8.3Q252.98-6.55 254-4.8 255.03-3.05 257.25-1.8 259.48-0.55 262.98-0.55L262.98-0.55Q265.78-0.55 267.93-1.63 270.08-2.7 271.23-4.5 272.38-6.3 272.38-8.5L272.38-8.5Q272.38-11.35 271.08-13.03 269.78-14.7 267.85-15.5 265.93-16.3 262.68-17.15L262.68-17.15Q259.28-18.05 257.23-18.95 255.18-19.85 253.75-21.73 252.33-23.6 252.33-26.8L252.33-26.8Q252.33-29.1 253.6-31.13 254.88-33.15 257.25-34.35 259.63-35.55 262.68-35.55L262.68-35.55Q265.78-35.55 268.03-34.45 270.28-33.35 271.55-31.68 272.83-30 273.23-28.15L273.23-28.15 272.23-28.15Q271.88-29.6 270.78-31.1 269.68-32.6 267.63-33.63 265.58-34.65 262.68-34.65L262.68-34.65Q260.13-34.65 258-33.68 255.88-32.7 254.6-30.93 253.33-29.15 253.33-26.8L253.33-26.8Q253.33-23.9 254.65-22.18 255.98-20.45 257.93-19.63 259.88-18.8 263.13-17.95L263.13-17.95Q266.53-17.05 268.55-16.18 270.58-15.3 271.98-13.48 273.38-11.65 273.38-8.5L273.38-8.5Q273.38-6.3 272.2-4.25 271.03-2.2 268.68-0.93 266.33 0.35 262.98 0.35L262.98 0.35ZM303.28 0L299.63-9.7 282.23-9.7 278.53 0 277.38 0 290.43-34.15 291.43-34.15 304.43 0 303.28 0ZM282.58-10.6L299.28-10.6 290.93-32.55 282.58-10.6ZM341.37-24.75L340.37-24.75Q338.77-29.15 334.9-31.88 331.02-34.6 325.72-34.6L325.72-34.6Q321.32-34.6 317.72-32.52 314.12-30.45 312.05-26.58 309.97-22.7 309.97-17.55L309.97-17.55Q309.97-12.4 312.05-8.53 314.12-4.65 317.72-2.58 321.32-0.5 325.72-0.5L325.72-0.5Q330.02-0.5 333.6-2.5 337.17-4.5 339.32-8.28 341.47-12.05 341.57-17.05L341.57-17.05 324.97-17.05 324.97-17.95 342.52-17.95 342.52-17.55Q342.52-12.35 340.37-8.25 338.22-4.15 334.4-1.88 330.57 0.4 325.72 0.4L325.72 0.4Q320.87 0.4 317.05-1.88 313.22-4.15 311.07-8.25 308.92-12.35 308.92-17.55L308.92-17.55Q308.92-22.75 311.07-26.85 313.22-30.95 317.05-33.23 320.87-35.5 325.72-35.5L325.72-35.5Q331.42-35.5 335.47-32.6 339.52-29.7 341.37-24.75L341.37-24.75ZM366.97-34.3L350.77-34.3 350.77-18.05 365.47-18.05 365.47-17.15 350.77-17.15 350.77-0.9 366.97-0.9 366.97 0 349.77 0 349.77-35.2 366.97-35.2 366.97-34.3Z" opacity="1" transform="matrix(1,0,0,1,0,0)" fill="#a437db" class="wordmark-text-0" data-fill-palette-color="primary" id="text-0"></path></svg></g></svg></g></svg></g></svg></g><g transform="matrix(1,0,0,1,143.40657602635747,0)"><svg viewBox="0 0 108.70684794728513 108.70684794728513" height="108.70684794728513" width="108.70684794728513"><g><svg></svg></g><g id="icon-0"><svg viewBox="0 0 108.70684794728513 108.70684794728513" height="108.70684794728513" width="108.70684794728513"><g><path d="M0 54.353c0-30.019 24.335-54.353 54.353-54.353 30.019 0 54.353 24.335 54.354 54.353 0 30.019-24.335 54.353-54.354 54.354-30.019 0-54.353-24.335-54.353-54.354zM54.353 104.493c27.691 0 50.14-22.448 50.14-50.14 0-27.691-22.448-50.14-50.14-50.139-27.691 0-50.14 22.448-50.139 50.139 0 27.691 22.448 50.14 50.139 50.14z" data-fill-palette-color="accent" fill="#a437db" stroke="transparent"></path><ellipse rx="53.80988973390614" ry="53.80988973390614" cx="54.35342397364256" cy="54.35342397364256" fill="#a437db" stroke="transparent" stroke-width="0" fill-opacity="1" data-fill-palette-color="accent"></ellipse></g><g transform="matrix(1,0,0,1,30.996954025560747,27.541150320388983)"><svg viewBox="0 0 46.71293989616363 53.62454730650716" height="53.62454730650716" width="46.71293989616363"><g><svg xmlns="http://www.w3.org/2000/svg" xmlns:xlink="http://www.w3.org/1999/xlink" version="1.1" x="0" y="0" viewBox="10.100000381469727 5.199999809265137 78.4000015258789 90" enable-background="new 0 0 100 100" xml:space="preserve" height="53.62454730650716" width="46.71293989616363" class="icon-s-0" data-fill-palette-color="quaternary" id="s-0"><polygon fill-rule="evenodd" clip-rule="evenodd" fill="#ffffff" points="88.5,28.2 68.4,59.9 68.5,22.3 " data-fill-palette-color="quaternary"></polygon><polygon fill-rule="evenodd" clip-rule="evenodd" fill="#ffffff" points="49.8,5.2 67.2,38.5 34.7,19.6 " data-fill-palette-color="quaternary"></polygon><polygon fill-rule="evenodd" clip-rule="evenodd" fill="#ffffff" points="67.8,38.3 67.8,22.3 60.8,24.5 " data-fill-palette-color="quaternary"></polygon><polygon fill-rule="evenodd" clip-rule="evenodd" fill="#ffffff" points="88.2,73.2 50.6,71.7 83.2,52.9 " data-fill-palette-color="quaternary"></polygon><polygon fill-rule="evenodd" clip-rule="evenodd" fill="#ffffff" points="69.1,60.3 82.8,52.3 77.4,47.4 " data-fill-palette-color="quaternary"></polygon><polygon fill-rule="evenodd" clip-rule="evenodd" fill="#ffffff" points="48.7,95.2 31.5,61.9 63.9,80.9 " data-fill-palette-color="quaternary"></polygon><polygon fill-rule="evenodd" clip-rule="evenodd" fill="#ffffff" points="50.5,72.2 64.2,80.2 65.8,73.1 " data-fill-palette-color="quaternary"></polygon><polygon fill-rule="evenodd" clip-rule="evenodd" fill="#ffffff" points="10.1,72 30.5,40.4 30.1,78 " data-fill-palette-color="quaternary"></polygon><polygon fill-rule="evenodd" clip-rule="evenodd" fill="#ffffff" points="30.9,62.1 30.8,78 37.8,75.8 " data-fill-palette-color="quaternary"></polygon><polygon fill-rule="evenodd" clip-rule="evenodd" fill="#ffffff" points="11,27 48.5,28.9 15.8,47.3 " data-fill-palette-color="quaternary"></polygon><polygon fill-rule="evenodd" clip-rule="evenodd" fill="#ffffff" points="30,40.1 16.1,47.9 21.5,52.9 " data-fill-palette-color="quaternary"></polygon><polygon fill-rule="evenodd" clip-rule="evenodd" fill="#ffffff" points="48.2,28.3 34.5,20.2 32.9,27.4 " data-fill-palette-color="quaternary"></polygon></svg></g></svg></g></svg></g></svg></g><g></g></svg></g><defs></defs></svg><rect width="395.52" height="177.49096618552684" fill="none" stroke="none" visibility="hidden"></rect></g></svg></g></svg>